<svg width="151" height="35" viewBox="0 0 151 35" fill="none" xmlns="http://www.w3.org/2000/svg">
<path d="M1.42 26.2656C1.156 26.2656 0.94 26.1816 0.772 26.0136C0.604 25.8456 0.52 25.6296 0.52 25.3656V1.96556C0.52 1.70156 0.604 1.48556 0.772 1.31756C0.94 1.14956 1.156 1.06556 1.42 1.06556H11.212C14.308 1.06556 16.744 1.78556 18.52 3.22556C20.32 4.64156 21.22 6.65756 21.22 9.27356C21.22 10.9776 20.8 12.4176 19.96 13.5936C19.144 14.7696 18.064 15.6576 16.72 16.2576L21.688 25.1136C21.76 25.2576 21.796 25.3896 21.796 25.5096C21.796 25.7016 21.712 25.8816 21.544 26.0496C21.4 26.1936 21.22 26.2656 21.004 26.2656H16.252C15.796 26.2656 15.46 26.1576 15.244 25.9416C15.028 25.7016 14.872 25.4856 14.776 25.2936L10.672 17.3736H6.964V25.3656C6.964 25.6296 6.88 25.8456 6.712 26.0136C6.544 26.1816 6.328 26.2656 6.064 26.2656H1.42ZM6.964 12.2976H11.14C12.268 12.2976 13.108 12.0216 13.66 11.4696C14.236 10.9176 14.524 10.1616 14.524 9.20156C14.524 8.26556 14.248 7.50956 13.696 6.93356C13.168 6.35756 12.316 6.06956 11.14 6.06956H6.964V12.2976ZM34.8066 26.6256C32.4066 26.6256 30.4146 26.2896 28.8306 25.6176C27.2466 24.9216 26.0466 24.0216 25.2306 22.9176C24.4146 21.8136 23.9826 20.6376 23.9346 19.3896C23.9346 19.1976 24.0066 19.0296 24.1506 18.8856C24.3186 18.7176 24.5106 18.6336 24.7266 18.6336H29.2626C29.5986 18.6336 29.8506 18.6936 30.0186 18.8136C30.2106 18.9336 30.3786 19.0896 30.5226 19.2816C30.7146 19.6416 30.9786 19.9896 31.3146 20.3256C31.6746 20.6616 32.1306 20.9376 32.6826 21.1536C33.2586 21.3456 33.9666 21.4416 34.8066 21.4416C36.1986 21.4416 37.2426 21.2256 37.9386 20.7936C38.6586 20.3616 39.0186 19.7736 39.0186 19.0296C39.0186 18.5016 38.8266 18.0696 38.4426 17.7336C38.0586 17.3736 37.4346 17.0616 36.5706 16.7976C35.7306 16.5096 34.6026 16.2216 33.1866 15.9336C31.3626 15.5496 29.8026 15.0576 28.5066 14.4576C27.2346 13.8336 26.2626 13.0296 25.5906 12.0456C24.9186 11.0376 24.5826 9.78956 24.5826 8.30156C24.5826 6.83756 24.9906 5.52956 25.8066 4.37756C26.6466 3.22556 27.8106 2.32556 29.2986 1.67756C30.7866 1.02956 32.5506 0.705563 34.5906 0.705563C36.2466 0.705563 37.6986 0.921563 38.9466 1.35356C40.2186 1.78556 41.2866 2.36156 42.1506 3.08156C43.0146 3.80156 43.6626 4.56956 44.0946 5.38556C44.5506 6.17756 44.7906 6.95756 44.8146 7.72556C44.8146 7.91756 44.7426 8.09756 44.5986 8.26556C44.4546 8.40956 44.2746 8.48156 44.0586 8.48156H39.3066C39.0426 8.48156 38.8146 8.43356 38.6226 8.33756C38.4306 8.24156 38.2626 8.08556 38.1186 7.86956C37.9746 7.34156 37.5906 6.88556 36.9666 6.50156C36.3666 6.09356 35.5746 5.88956 34.5906 5.88956C33.5346 5.88956 32.7066 6.08156 32.1066 6.46556C31.5306 6.82556 31.2426 7.38956 31.2426 8.15756C31.2426 8.63756 31.3986 9.05756 31.7106 9.41756C32.0466 9.77756 32.5866 10.0896 33.3306 10.3536C34.0986 10.6176 35.1426 10.8936 36.4626 11.1816C38.6466 11.5896 40.4106 12.1056 41.7546 12.7296C43.0986 13.3296 44.0826 14.1216 44.7066 15.1056C45.3306 16.0656 45.6426 17.2776 45.6426 18.7416C45.6426 20.3736 45.1746 21.7896 44.2386 22.9896C43.3266 24.1656 42.0546 25.0656 40.4226 25.6896C38.7906 26.3136 36.9186 26.6256 34.8066 26.6256ZM49.5731 18.0576C49.3091 18.0576 49.0931 17.9736 48.9251 17.8056C48.7571 17.6376 48.6731 17.4216 48.6731 17.1576V13.7736C48.6731 13.5096 48.7571 13.2936 48.9251 13.1256C49.0931 12.9576 49.3091 12.8736 49.5731 12.8736H60.8411C61.1051 12.8736 61.3211 12.9576 61.4891 13.1256C61.6571 13.2936 61.7411 13.5096 61.7411 13.7736V17.1576C61.7411 17.4216 61.6571 17.6376 61.4891 17.8056C61.3211 17.9736 61.1051 18.0576 60.8411 18.0576H49.5731ZM67.0919 26.2656C66.8279 26.2656 66.6119 26.1816 66.4439 26.0136C66.2759 25.8456 66.1919 25.6296 66.1919 25.3656V1.96556C66.1919 1.70156 66.2759 1.48556 66.4439 1.31756C66.6119 1.14956 66.8279 1.06556 67.0919 1.06556H71.8439C72.0839 1.06556 72.2879 1.14956 72.4559 1.31756C72.6479 1.48556 72.7439 1.70156 72.7439 1.96556V20.8296H83.6159C83.8799 20.8296 84.0959 20.9256 84.2639 21.1176C84.4559 21.2856 84.5519 21.5016 84.5519 21.7656V25.3656C84.5519 25.6296 84.4559 25.8456 84.2639 26.0136C84.0959 26.1816 83.8799 26.2656 83.6159 26.2656H67.0919ZM92.8923 26.6256C91.5963 26.6256 90.4323 26.3856 89.4003 25.9056C88.3923 25.4016 87.5883 24.7296 86.9883 23.8896C86.3883 23.0496 86.0883 22.1016 86.0883 21.0456C86.0883 19.3416 86.7843 17.9976 88.1763 17.0136C89.5683 16.0056 91.4163 15.3216 93.7203 14.9616L98.2203 14.2776V13.7736C98.2203 12.9096 98.0403 12.2496 97.6803 11.7936C97.3203 11.3376 96.6603 11.1096 95.7003 11.1096C95.0283 11.1096 94.4763 11.2416 94.0443 11.5056C93.6363 11.7696 93.3123 12.1296 93.0723 12.5856C92.8563 12.8976 92.5563 13.0536 92.1723 13.0536H88.1403C87.8763 13.0536 87.6723 12.9816 87.5283 12.8376C87.3843 12.6696 87.3243 12.4776 87.3483 12.2616C87.3483 11.8296 87.5043 11.3376 87.8163 10.7856C88.1523 10.2096 88.6563 9.64556 89.3283 9.09356C90.0003 8.54156 90.8643 8.08556 91.9203 7.72556C92.9763 7.36556 94.2483 7.18556 95.7363 7.18556C97.2963 7.18556 98.6283 7.36556 99.7323 7.72556C100.836 8.08556 101.724 8.58956 102.396 9.23756C103.092 9.88556 103.608 10.6536 103.944 11.5416C104.28 12.4056 104.448 13.3656 104.448 14.4216V25.3656C104.448 25.6296 104.352 25.8456 104.16 26.0136C103.992 26.1816 103.788 26.2656 103.548 26.2656H99.3723C99.1083 26.2656 98.8923 26.1816 98.7243 26.0136C98.5563 25.8456 98.4723 25.6296 98.4723 25.3656V24.1056C98.1603 24.5616 97.7403 24.9816 97.2123 25.3656C96.6843 25.7496 96.0603 26.0496 95.3403 26.2656C94.6443 26.5056 93.8283 26.6256 92.8923 26.6256ZM94.5843 22.5216C95.2803 22.5216 95.9043 22.3776 96.4563 22.0896C97.0323 21.7776 97.4763 21.3096 97.7883 20.6856C98.1243 20.0376 98.2923 19.2336 98.2923 18.2736V17.7696L95.2323 18.3096C94.1043 18.5016 93.2763 18.8016 92.7483 19.2096C92.2443 19.5936 91.9923 20.0496 91.9923 20.5776C91.9923 20.9856 92.1123 21.3336 92.3523 21.6216C92.5923 21.9096 92.9043 22.1376 93.2883 22.3056C93.6723 22.4496 94.1043 22.5216 94.5843 22.5216ZM109.411 26.2656C109.147 26.2656 108.931 26.1816 108.763 26.0136C108.595 25.8456 108.511 25.6296 108.511 25.3656V8.44556C108.511 8.18156 108.595 7.96556 108.763 7.79756C108.931 7.62956 109.147 7.54556 109.411 7.54556H113.551C113.815 7.54556 114.031 7.62956 114.199 7.79756C114.367 7.96556 114.451 8.18156 114.451 8.44556V9.81356C115.075 9.06956 115.891 8.44556 116.899 7.94156C117.907 7.43756 119.095 7.18556 120.463 7.18556C121.855 7.18556 123.079 7.49756 124.135 8.12156C125.215 8.74556 126.055 9.66956 126.655 10.8936C127.279 12.0936 127.591 13.5696 127.591 15.3216V25.3656C127.591 25.6296 127.495 25.8456 127.303 26.0136C127.135 26.1816 126.931 26.2656 126.691 26.2656H122.155C121.915 26.2656 121.699 26.1816 121.507 26.0136C121.339 25.8456 121.255 25.6296 121.255 25.3656V15.5376C121.255 14.4096 120.979 13.5456 120.427 12.9456C119.899 12.3216 119.107 12.0096 118.051 12.0096C117.067 12.0096 116.275 12.3216 115.675 12.9456C115.099 13.5456 114.811 14.4096 114.811 15.5376V25.3656C114.811 25.6296 114.715 25.8456 114.523 26.0136C114.355 26.1816 114.151 26.2656 113.911 26.2656H109.411ZM140.788 34.1856C138.94 34.1856 137.404 33.9456 136.18 33.4656C134.98 32.9856 134.02 32.4096 133.3 31.7376C132.604 31.0656 132.1 30.3936 131.788 29.7216C131.476 29.0736 131.308 28.5576 131.284 28.1736C131.26 27.9096 131.344 27.6936 131.536 27.5256C131.728 27.3576 131.956 27.2736 132.22 27.2736H136.792C137.008 27.2736 137.188 27.3216 137.332 27.4176C137.5 27.5376 137.632 27.7296 137.728 27.9936C137.848 28.2576 138.004 28.5336 138.196 28.8216C138.412 29.1096 138.7 29.3376 139.06 29.5056C139.444 29.6976 139.96 29.7936 140.608 29.7936C141.328 29.7936 141.928 29.6736 142.408 29.4336C142.888 29.2176 143.248 28.8456 143.488 28.3176C143.728 27.8136 143.848 27.1296 143.848 26.2656V23.8536C143.296 24.4536 142.588 24.9456 141.724 25.3296C140.86 25.6896 139.816 25.8696 138.592 25.8696C137.368 25.8696 136.288 25.6896 135.352 25.3296C134.416 24.9696 133.636 24.4296 133.012 23.7096C132.388 22.9896 131.896 22.1136 131.536 21.0816C131.2 20.0496 130.996 18.8616 130.924 17.5176C130.9 16.8936 130.9 16.2696 130.924 15.6456C130.996 14.3496 131.2 13.1856 131.536 12.1536C131.872 11.1216 132.352 10.2336 132.976 9.48956C133.624 8.74556 134.416 8.18156 135.352 7.79756C136.288 7.38956 137.368 7.18556 138.592 7.18556C139.888 7.18556 140.992 7.43756 141.904 7.94156C142.84 8.42156 143.608 9.03356 144.208 9.77756V8.44556C144.208 8.20556 144.292 8.00156 144.46 7.83356C144.628 7.64156 144.844 7.54556 145.108 7.54556H149.248C149.512 7.54556 149.728 7.64156 149.896 7.83356C150.088 8.00156 150.184 8.20556 150.184 8.44556V25.7616C150.184 27.5856 149.812 29.1216 149.068 30.3696C148.324 31.6176 147.256 32.5656 145.864 33.2136C144.472 33.8616 142.78 34.1856 140.788 34.1856ZM140.536 21.1896C141.304 21.1896 141.928 21.0216 142.408 20.6856C142.888 20.3496 143.236 19.9176 143.452 19.3896C143.692 18.8616 143.824 18.2976 143.848 17.6976C143.872 17.4336 143.884 17.0616 143.884 16.5816C143.884 16.1016 143.872 15.7416 143.848 15.5016C143.824 14.8776 143.692 14.3016 143.452 13.7736C143.236 13.2456 142.888 12.8256 142.408 12.5136C141.928 12.1776 141.304 12.0096 140.536 12.0096C139.744 12.0096 139.108 12.1776 138.628 12.5136C138.172 12.8496 137.836 13.3056 137.62 13.8816C137.428 14.4576 137.308 15.0936 137.26 15.7896C137.236 16.3176 137.236 16.8576 137.26 17.4096C137.308 18.1056 137.428 18.7416 137.62 19.3176C137.836 19.8936 138.172 20.3496 138.628 20.6856C139.108 21.0216 139.744 21.1896 140.536 21.1896Z" fill="black"/>
</svg>
